<?xml version="1.0" encoding="UTF-8" standalone="no"?>
<!-- Created with Inkscape (http://www.inkscape.org/) -->

<svg
   xmlns:dc="http://purl.org/dc/elements/1.1/"
   xmlns:cc="http://creativecommons.org/ns#"
   xmlns:rdf="http://www.w3.org/1999/02/22-rdf-syntax-ns#"
   xmlns:svg="http://www.w3.org/2000/svg"
   xmlns="http://www.w3.org/2000/svg"
   xmlns:sodipodi="http://sodipodi.sourceforge.net/DTD/sodipodi-0.dtd"
   xmlns:inkscape="http://www.inkscape.org/namespaces/inkscape"
   id="svg3390"
   version="1.1"
   inkscape:version="0.91 r13725"
   width="800"
   height="833"
   viewBox="0 0 800 833"
   sodipodi:docname="logo1.svg">
  <metadata
     id="metadata3396">
    <rdf:RDF>
      <cc:Work
         rdf:about="">
        <dc:format>image/svg+xml</dc:format>
        <dc:type
           rdf:resource="http://purl.org/dc/dcmitype/StillImage" />
        <dc:title></dc:title>
      </cc:Work>
    </rdf:RDF>
  </metadata>
  <defs
     id="defs3394" />
  <sodipodi:namedview
     pagecolor="#ffffff"
     bordercolor="#666666"
     borderopacity="1"
     objecttolerance="10"
     gridtolerance="10"
     guidetolerance="10"
     inkscape:pageopacity="0"
     inkscape:pageshadow="2"
     inkscape:window-width="1122"
     inkscape:window-height="891"
     id="namedview3392"
     showgrid="false"
     inkscape:zoom="0.57296112"
     inkscape:cx="364.76984"
     inkscape:cy="565.23016"
     inkscape:window-x="0"
     inkscape:window-y="0"
     inkscape:window-maximized="0"
     inkscape:current-layer="layer2"
     showguides="true"
     inkscape:guide-bbox="true">
    <sodipodi:guide
       position="401.4234,438.0751"
       orientation="1,0"
       id="guide3397" />
  </sodipodi:namedview>
  <g
     inkscape:groupmode="layer"
     id="layer1"
     inkscape:label="Layer 1"
     transform="translate(0,-100)" />
  <g
     inkscape:groupmode="layer"
     id="layer2"
     inkscape:label="Layer 2"
     transform="translate(0,-100)">
    <path
       style="fill:#ffffff"
       d="m 237.04859,879.45754 c -7.46732,-4.51997 -13.59067,-8.9617 -13.60743,-9.87053 -0.0168,-0.90881 2.65849,-9.6498 5.94502,-19.42442 3.28653,-9.77461 9.59629,-28.8268 14.0217,-42.3382 4.42541,-13.5114 16.37845,-49.50372 26.56232,-79.98292 10.18387,-30.47921 20.00281,-60.04432 21.81987,-65.70025 1.81706,-5.65594 3.56014,-10.92123 3.87353,-11.70064 0.44751,-1.11296 -11.85289,-1.48081 -57.31106,-1.71392 l -57.88087,-0.2968 -0.26218,-14.28267 -0.26218,-14.28266 5.38255,-3.42784 c 2.9604,-1.88531 17.50227,-12.12596 32.31525,-22.75699 14.81298,-10.63103 38.09078,-27.31309 51.72845,-37.07125 13.63767,-9.75814 25.19565,-18.28493 25.68441,-18.94839 0.48875,-0.66345 0.89698,-22.41604 0.90716,-48.33908 l 0.0185,-47.13279 -55.63928,0 -55.63928,0 0,-14.74547 0,-14.74547 17.72365,-14.10551 c 38.37865,-30.54396 65.44155,-52.0353 71.35886,-56.66785 l 6.20285,-4.85611 117.76321,0.0174 117.76322,0.0174 44.75333,33.7475 c 24.61433,18.56113 47.08256,35.55933 49.92938,37.77377 l 5.17605,4.02626 -0.33785,14.48345 -0.33786,14.48338 -51.11496,0.29807 -51.11496,0.29806 0.31388,55.6447 0.31389,55.64468 25.59103,18.32711 c 14.07507,10.07989 34.72105,24.88283 45.87996,32.89541 12.4823,8.96281 21.36799,14.56831 23.09334,14.56831 2.78902,0 2.8044,0.0815 2.8044,14.85397 l 0,14.85397 -48.98675,0 -48.98676,0 0,9.25502 c 0,8.39578 0.94746,12.13509 10.20524,40.27711 5.61288,17.06216 16.73963,51.07496 24.72614,75.58401 7.9865,24.50905 18.60697,56.88526 23.60104,71.94713 4.99409,15.06187 8.97157,27.47184 8.83886,27.57772 -1.01457,0.80941 -29.15292,13.02254 -30.0032,13.02254 -1.34669,0 -15.2848,-13.69187 -63.97388,-62.84372 -20.85444,-21.05264 -45.85176,-46.24113 -55.54959,-55.9744 -9.69784,-9.73328 -20.19595,-20.27389 -23.32911,-23.42357 l -5.69668,-5.72671 -4.08305,3.99915 c -2.24569,2.19953 -16.82754,16.83611 -32.40415,32.52573 -27.032,27.22815 -48.41024,48.73075 -84.69837,85.19104 -9.05421,9.09714 -18.7992,18.98261 -21.65553,21.96768 -2.85634,2.98508 -5.79002,5.3978 -6.51927,5.36159 -0.72925,-0.0362 -7.43554,-3.76397 -14.90286,-8.28394 z m 291.83798,-62.57663 c -4.19955,-12.13583 -27.67189,-82.84314 -39.98889,-120.4613 -5.7614,-17.59624 -10.89778,-32.40979 -11.4142,-32.91899 -0.97264,-0.95906 -53.89236,52.19362 -53.89236,54.12959 0,1.266 107.14846,108.75924 107.7984,108.14527 0.23833,-0.22514 -0.88799,-4.2277 -2.50295,-8.89457 z M 344.71799,752.06729 c 18.43326,-18.41188 33.51502,-33.87032 33.51502,-34.35208 0,-0.48176 -9.06302,-10.09794 -20.14004,-21.36928 -28.89599,-29.40291 -33.32155,-33.78682 -33.72116,-33.40381 -0.40249,0.38576 -16.79244,50.37272 -28.95971,88.32292 -4.43266,13.82562 -11.56039,35.77568 -15.83941,48.77794 -4.27901,13.00224 -7.78003,23.89853 -7.78003,24.21397 0,0.57066 9.00903,-8.34748 72.92533,-72.18966 z m 79.36031,-79.92821 21.92495,-22.56661 -22.31479,-0.31058 c -12.27313,-0.17084 -32.617,-0.17084 -45.20859,0 l -22.89382,0.31058 22.38097,22.56661 c 12.30954,12.41164 22.78718,22.56661 23.28366,22.56661 0.49647,0 10.7689,-10.15497 22.82762,-22.56661 z M 295.70909,597.73689 c 0.29321,-18.63341 0.11854,-20.90828 -1.55898,-20.30018 -2.80413,1.01649 -57.34248,39.99681 -57.39195,41.01987 -0.0233,0.4825 13.15677,0.73959 29.28914,0.57131 l 29.33157,-0.30597 0.33022,-20.98503 z m 185.05749,-4.09127 0.32664,-25.07631 -3.35051,-2.59097 -3.35051,-2.59097 -73.48013,-0.0411 -73.48013,-0.041 0,28.00254 0,28.00253 76.504,-0.29416 76.504,-0.29418 0.32664,-25.0763 z m 69.53316,24.89437 c 0.84214,-0.49119 -35.60666,-26.66948 -37.1327,-26.66948 -0.37072,0 -0.67403,6.19109 -0.67403,13.75797 l 0,13.75798 18.44562,-0.15626 c 10.1451,-0.0859 18.85759,-0.39655 19.36111,-0.69021 z m -66.83592,-133.50381 0,-49.70367 -81.64459,0 -81.64459,0 0,49.70367 0,49.70367 81.64459,0 81.64459,0 0,-49.70367 z M 295.4433,411.01975 c 0.32631,-0.80328 0.44529,-11.66909 0.26443,-24.14625 l -0.32886,-22.68575 -16.32891,12.77676 c -8.98091,7.02721 -19.38784,15.1936 -23.12652,18.14753 -3.73867,2.95393 -9.83558,7.68456 -13.54869,10.51253 -3.71311,2.82797 -6.77754,5.52739 -6.80985,5.99872 -0.0323,0.47133 13.29364,0.85696 29.61319,0.85696 22.97102,0 29.80591,-0.32983 30.26521,-1.4605 z m 184.99664,-20.82046 0,-21.70965 -76.504,-0.29417 -76.504,-0.29417 0,22.29799 0,22.298 76.504,-0.29417 76.504,-0.29418 0,-21.70965 z m 77.81435,21.32624 c -0.40781,-0.96568 -7.44041,-6.7313 -29.43237,-24.12985 -6.65252,-5.26303 -13.04801,-10.33565 -14.2122,-11.27249 -2.00337,-1.61215 -2.11671,-0.68431 -2.11671,17.32685 l 0,19.03021 23.08223,0 c 12.69523,0 22.90081,-0.42962 22.67905,-0.95472 z m -371.13177,266.89792 0.001,-21.42399 19.35279,0 19.3528,0 0,21.08378 0,21.08379 -19.35446,0.34021 -19.35448,0.34021 0.001,-21.424 z m 384.63841,-1.99957 0,-21.70965 18.74802,0 18.74801,0 0,21.70965 0,21.70965 -18.74801,0 -18.74802,0 0,-21.70965 z m -383.42719,-205.77539 0,-21.60462 19.35279,0 19.3528,0 -5.8e-4,21.424 -5.9e-4,21.42399 -19.35221,0.18063 -19.35221,0.18062 0,-21.60462 z m 384.63674,-2.1802 0,-21.70965 19.35279,0 19.35279,0 0,21.70965 0,21.70965 -19.35279,0 -19.35279,0 0,-21.70965 z m 18.30253,-103.8125 c 0.24502,-0.66942 8.09231,-7.02204 17.43841,-14.11692 15.04947,-11.42445 34.7704,-26.52405 43.9365,-33.64057 l 3.16718,-2.45899 -3.92628,-4.61534 c -2.15945,-2.53844 -3.92627,-4.88463 -3.92627,-5.21373 0,-0.32911 9.38912,-5.82465 20.86472,-12.2123 11.47561,-6.38764 21.33577,-12.01805 21.91149,-12.51201 0.57572,-0.49397 -0.46579,-2.77142 -2.31446,-5.06102 -4.01639,-4.97436 -6.3644,-2.18294 20.6205,-24.51461 l 19.35279,-16.01563 3.62865,3.70595 c 7.72916,7.89384 38.71784,41.97125 39.0671,42.96104 0.4128,1.16988 1.27303,0.89715 -31.50742,9.98923 -13.13873,3.64419 -23.88282,7.15595 -23.87575,7.80389 0.007,0.64794 2.16378,3.74259 4.79269,6.87701 2.6289,3.13442 4.39208,6.01142 3.91818,6.39338 -0.47391,0.38194 -11.7476,3.88531 -25.05264,7.78527 -13.30504,3.89996 -24.9143,7.32102 -25.79834,7.60235 -1.11341,0.35435 -0.27712,1.9796 2.72149,5.28893 2.38085,2.62758 4.32883,5.39508 4.32883,6.15 0,0.75494 -2.31326,1.92787 -5.14058,2.6065 -2.82732,0.67864 -16.84298,4.6413 -31.1459,8.80592 -14.30292,4.16461 -30.90399,8.98677 -36.89126,10.71591 -5.98727,1.72914 -12.17501,3.5374 -13.75053,4.01837 -1.85947,0.56765 -2.70828,0.44743 -2.4191,-0.34263 z m -66.68451,-82.77622 0,-39.64868 -6.65252,0 c -8.01939,0 -7.72783,1.97871 -3.61986,-24.56618 4.03459,-26.0708 4.1774,-24.56618 -2.33162,-24.56618 l -5.34669,0 -0.66774,-7.14133 c -0.36725,-3.92773 -1.00191,-16.20985 -1.41037,-27.2936 l -0.74262,-20.15226 10.6881,-0.68333 c 25.24989,-1.61431 54.83665,-2.08905 54.83665,-0.87988 0,1.00931 -4.18055,10.80409 -21.40547,50.15168 -0.46551,1.06339 1.55264,1.42827 7.89963,1.42827 4.68868,0 8.81078,0.43701 9.16023,0.97114 0.34945,0.53413 -3.70065,11.16302 -9.00023,23.61977 -5.29958,12.45674 -9.6356,23.3316 -9.6356,24.16634 0,1.0962 2.05151,1.51773 7.38671,1.51773 5.42543,0 7.22617,0.37922 6.78212,1.42826 -20.10485,47.49598 -33.93791,79.36723 -34.81411,80.21144 -0.69622,0.6708 -1.12661,-14.06139 -1.12661,-38.56319 z"
       id="path3400"
       inkscape:connector-curvature="0" />
  </g>
</svg>
